<?xml version="1.0" encoding="utf-8"?>
<!-- Generator: Adobe Illustrator 16.0.0, SVG Export Plug-In . SVG Version: 6.00 Build 0)  -->
<!DOCTYPE svg PUBLIC "-//W3C//DTD SVG 1.1//EN" "http://www.w3.org/Graphics/SVG/1.1/DTD/svg11.dtd">
<svg version="1.1" id="Layer_1" xmlns="http://www.w3.org/2000/svg" xmlns:xlink="http://www.w3.org/1999/xlink" x="0px" y="0px"
	 width="24px" height="120px" viewBox="0 0 24 120" enable-background="new 0 0 24 120" xml:space="preserve">
<g>
	<g>
		<path fill="#BBBDBF" stroke="#595A5C" stroke-width="0.3273" stroke-miterlimit="10" d="M15.072,4.283c-0.037,0-0.069,0-0.102,0
			c-0.753,0-1.506,0.002-2.259-0.002c-0.083,0-0.106,0.023-0.106,0.107c0.002,1.675,0.002,3.352,0,5.027
			c0,0.085,0.024,0.106,0.108,0.105c0.752-0.003,1.505-0.002,2.259-0.002c0.029,0,0.062,0,0.1,0
			C15.072,7.77,15.072,6.032,15.072,4.283z"/>
		<path fill="#595A5C" stroke="#595A5C" stroke-width="0.3273" stroke-miterlimit="10" d="M20.665,21c-5.776,0-11.554,0-17.332,0
			c-0.13-0.101-0.213-0.223-0.212-0.4C3.122,14.882,3.122,9.165,3.122,3.446C3.122,3.172,3.292,3,3.565,3c0.662,0,1.324,0,1.986,0
			C5.58,3,5.607,3,5.645,3c0,0.049,0,0.09,0,0.13c0,2.113,0,4.225,0.002,6.336c0,0.095,0,0.189,0.016,0.28
			c0.1,0.546,0.559,0.93,1.118,0.931c0.844,0.002,1.688,0.003,2.531,0.003c2.203,0.001,4.407,0.001,6.607,0
			c0.188,0,0.358-0.055,0.513-0.163c0.273-0.196,0.396-0.466,0.396-0.8c-0.002-2.197,0-4.394,0-6.591c0-0.041,0-0.08,0-0.119
			c0.021-0.004,0.028-0.008,0.037-0.008c0.432,0.001,0.864,0,1.3,0.003c0.031,0,0.07,0.024,0.095,0.048
			c0.845,0.842,1.687,1.686,2.531,2.527c0.063,0.062,0.09,0.124,0.09,0.213c-0.004,4.902-0.004,9.802,0,14.704
			C20.88,20.701,20.839,20.875,20.665,21z M5.646,20.345c4.236,0,8.458,0,12.688,0c0-0.044,0-0.085,0-0.125c0-2.381,0-4.763,0-7.144
			c0-0.044,0-0.088-0.002-0.132c-0.014-0.221-0.098-0.409-0.255-0.562c-0.187-0.178-0.41-0.237-0.66-0.237
			c-3.61,0.002-7.223,0.001-10.835,0.001c-0.038,0-0.078-0.005-0.114,0.002c-0.124,0.029-0.258,0.041-0.369,0.099
			c-0.315,0.163-0.455,0.437-0.455,0.792c0.002,2.402,0.002,4.803,0.002,7.205C5.646,20.275,5.646,20.308,5.646,20.345z"/>
		<path fill="#595A5C" stroke="#595A5C" stroke-width="0.3273" stroke-miterlimit="10" d="M15.072,4.283c0,1.749,0,3.487,0,5.236
			c-0.037,0-0.069,0-0.1,0c-0.754,0-1.507-0.001-2.259,0.002c-0.084,0.001-0.108-0.02-0.108-0.105c0.002-1.675,0.002-3.352,0-5.027
			c0-0.084,0.023-0.107,0.106-0.107c0.753,0.004,1.506,0.002,2.259,0.002C15.003,4.283,15.035,4.283,15.072,4.283z"/>
	</g>
	<rect fill="none" width="24" height="24"/>
</g>
<g>
	<path fill="#595A5C" stroke="#595A5C" stroke-width="0.3273" stroke-miterlimit="10" d="M21,37.108v-2.217l-2.688-1.11L18.059,33.1
		l1.064-2.644l-1.664-1.58L14.9,29.943l-0.684-0.299L13.107,27H10.89l-1.232,2.712l-0.73,0.173l-2.472-1.009l-1.58,1.664
		l1.023,2.517l-0.212,0.725L3,34.892v2.217l2.687,1.11l0.255,0.725l-1.066,2.601l1.664,1.58l2.56-1.067l0.682,0.256L10.89,45h2.217
		l1.153-2.687l0.683-0.256l2.516,1.067l1.664-1.664l-1.064-2.602l0.213-0.556L21,37.108z M11.918,39.332
		c-1.887,0-3.417-1.53-3.417-3.417c0-1.888,1.53-3.417,3.417-3.417c1.889,0,3.417,1.529,3.417,3.417
		C15.336,37.802,13.807,39.332,11.918,39.332z"/>
	<rect y="24" fill="none" width="24" height="24"/>
</g>
<g>
	<g>
		<path fill="#595A5C" stroke="#595A5C" stroke-width="0.3856" stroke-miterlimit="10" d="M5.279,52.501
			c0,0-0.595-0.244-0.507-0.929c0.089-0.684,0.583-0.723,0.583-0.723l5.318,0.825V50.85c0,0,0.062-0.91,0.658-0.848
			c0.595,0.062,2.19,0.354,2.19,0.354s0.33,0.127,0.395,0.545c0.062,0.418-0.305,1.305-0.305,1.305l5.104,0.887
			c0,0,0.62,0.252,0.508,0.963c-0.115,0.709-0.838,0.684-0.838,0.684L5.279,52.501z"/>
		<path fill="#595A5C" stroke="#595A5C" stroke-width="0.3856" stroke-miterlimit="10" d="M18.949,58.955
			c0.121-1.081,0.199-1.876,0.193-2.096c-0.035-0.93-0.98-0.979-0.98-0.979h-4.339h-3.225h-4.34c0,0-0.946,0.05-0.979,0.979
			c-0.009,0.22,0.069,1.015,0.192,2.096l-0.193,0.117c0,0,1.199,9.304,1.418,10.08c0.22,0.775,0.776,0.811,0.776,0.811
			s0.094,0.001,0.256,0.002c0.47,0.037,2.464,0.04,4.481,0.031c2.018,0.009,4.014,0.006,4.482-0.031
			c0.16-0.001,0.252-0.002,0.252-0.002s0.559-0.033,0.779-0.811c0.217-0.776,1.418-10.08,1.418-10.08L18.949,58.955z M9.423,67.979
			c-0.754,0.098-0.873-0.638-0.873-0.638s-1.049-8.497-1.01-8.68c0.037-0.183,0.15-0.673,0.728-0.757
			c0.576-0.084,0.874,0.57,0.874,0.57s0.969,8.77,0.964,8.795C10.1,67.296,10.177,67.883,9.423,67.979z M12.859,67.262
			c0,0-0.032,0.742-0.793,0.734c-0.759-0.01-0.751-0.6-0.759-0.626c-0.009-0.024-0.06-8.847-0.06-8.847s0.219-0.686,0.802-0.668
			c0.582,0.018,0.751,0.488,0.811,0.668C12.92,58.701,12.859,67.262,12.859,67.262z M15.872,67.341c0,0-0.119,0.734-0.873,0.638
			c-0.754-0.096-0.679-0.683-0.683-0.707c-0.006-0.026,0.963-8.797,0.963-8.797s0.299-0.652,0.875-0.57
			c0.576,0.086,0.689,0.574,0.729,0.758S15.872,67.341,15.872,67.341z"/>
	</g>
	<rect y="48" fill="none" width="24" height="24"/>
</g>
<g>
	<path fill="#595A5C" stroke="#595A5C" stroke-width="0.3273" stroke-miterlimit="10" d="M19.714,84
		c-0.784,0-1.153,0.552-1.284,1.136c-0.471,2.099-2.465,5.294-6.43,5.294c-3.55,0-6.429-2.881-6.429-6.43S8.45,77.57,12,77.57
		c1.439,0,2.762,0.484,3.831,1.285H14.57c-0.709,0-1.284,0.578-1.284,1.287s0.575,1.287,1.284,1.287h3.859
		c0.709,0,1.283-0.578,1.283-1.287v-3.856c0-0.71-0.574-1.286-1.283-1.286c-0.712,0-1.287,0.576-1.287,1.286v0.333
		C15.686,75.6,13.913,75,12,75c-4.97,0-9,4.029-9,9s4.03,9,9,9c6.414,0,9-6.105,9-7.633C21,84.434,20.316,84,19.714,84z"/>
	<rect y="72" fill="none" width="24" height="24"/>
</g>
<g>
	<polygon fill="#595A5C" stroke="#595A5C" stroke-width="0.3273" stroke-miterlimit="10" points="22,105.721 14.281,105.721 
		14.281,98 9.72,98 9.72,105.721 2,105.721 2,110.279 9.72,110.279 9.72,118 14.281,118 14.281,110.279 22,110.279 	"/>
</g>
</svg>
