<?xml version="1.0" encoding="utf-8"?>
<!-- Generator: Adobe Illustrator 16.0.0, SVG Export Plug-In . SVG Version: 6.00 Build 0)  -->
<!DOCTYPE svg PUBLIC "-//W3C//DTD SVG 1.1//EN" "http://www.w3.org/Graphics/SVG/1.1/DTD/svg11.dtd">
<svg version="1.1" id="Layer_1" xmlns="http://www.w3.org/2000/svg" xmlns:xlink="http://www.w3.org/1999/xlink" x="0px" y="0px"
	 width="50px" height="50px" viewBox="0 0 50 50" enable-background="new 0 0 50 50" xml:space="preserve">
<g>
	<path fill="#010101" d="M32.518,6.354H6.354v14.479h3.836v-9.81c0-0.461,0.373-0.833,0.833-0.833h21.494V6.354L32.518,6.354z"/>
	<path fill="#010101" d="M50,23.264V4.479C50,2.005,47.994,0,45.521,0H4.479C2.005,0,0,2.005,0,4.479v33.298h5.521
		c0.46,0,0.833,0.373,0.833,0.834v5.035h37.292v-11.98c0-0.459,0.373-0.832,0.832-0.832c0.461,0,0.834,0.373,0.834,0.832v12.813
		c0,0.46-0.373,0.833-0.834,0.833H5.521c-0.461,0-0.833-0.373-0.833-0.833v-5.034H0v6.076C0,47.995,2.005,50,4.479,50h41.042
		C47.994,50,50,47.995,50,45.521V24.931H39.809v14.046c0,0.461-0.371,0.832-0.832,0.832h-15.99c-0.461,0-0.833-0.371-0.833-0.832
		s0.373-0.834,0.833-0.834h6.458v-3.959H16.649c-0.461,0-0.833-0.371-0.833-0.832v-1.824h-3.958v6.615h5.921
		c0.461,0,0.833,0.373,0.833,0.834s-0.373,0.832-0.833,0.832h-6.754c-0.461,0-0.833-0.371-0.833-0.832V22.5H6.354v11.32
		c0,0.461-0.373,0.832-0.833,0.832c-0.46,0-0.833-0.371-0.833-0.832V5.521c0-0.461,0.373-0.833,0.833-0.833h38.958
		c0.461,0,0.834,0.373,0.834,0.833v9.619c0,0.46-0.373,0.833-0.834,0.833c-0.459,0-0.832-0.373-0.832-0.833V6.354h-9.463v3.836
		h4.793c0.461,0,0.832,0.373,0.832,0.833v12.24H50z"/>
	<path fill="#010101" d="M15.815,16.649c0-0.461,0.373-0.833,0.833-0.833h5.435v-3.958H11.857v18.004h3.958V16.649z"/>
	<rect x="22.5" y="22.5" fill="#010101" width="5" height="5"/>
	<path fill="#010101" d="M33.352,34.184h-2.24v3.959h7.031V11.857H23.75v4.792c0,0.46-0.373,0.833-0.833,0.833h-5.434v15.035h15.035
		V17.482h-3.627c-0.461,0-0.834-0.373-0.834-0.833c0-0.461,0.373-0.833,0.834-0.833h4.461c0.461,0,0.832,0.373,0.832,0.833v16.703
		C34.184,33.813,33.813,34.184,33.352,34.184z M29.166,20.833v8.333h-8.333v-8.333H29.166z"/>
</g>
</svg>
